<?xml version="1.0" encoding="utf-8"?>
<!-- Generator: Adobe Illustrator 25.2.3, SVG Export Plug-In . SVG Version: 6.00 Build 0)  -->
<svg version="1.1" id="Layer_1" xmlns="http://www.w3.org/2000/svg" xmlns:xlink="http://www.w3.org/1999/xlink" x="0px" y="0px"
	 viewBox="0 0 588.06 82.1" style="enable-background:new 0 0 588.06 82.1;" xml:space="preserve">
<style type="text/css">
	.st0{fill:#314999;}
	.st1{fill:url(#SVGID_1_);}
</style>
<g>
	<path class="st0" d="M133.5,8.7h14.97l16.15,47.91L180.77,8.7h14.97v69.94h-11.76V28.37l-15.4,43.86h-8.34l-15.19-43.81v50.23
		H133.5V8.7z M205.15,64.53c0-11.55,9.2-17.32,30.8-19.68c-0.21-5.35-2.35-9.84-9.41-9.84c-5.13,0-10.05,2.14-14.76,4.92l-4.49-8.34
		c5.78-3.64,13.26-6.84,21.6-6.84c13.05,0,19.68,8.13,19.68,22.78v31.12h-11.77v-5.78c-4.71,4.06-9.84,7.06-16.04,7.06
		C211.57,79.93,205.15,73.73,205.15,64.53z M235.96,64.53V53.41c-14.33,1.71-18.61,4.92-18.61,10.27c0,4.49,2.99,6.2,7.27,6.2
		C228.9,69.88,232.11,68.17,235.96,64.53z M261.94,9.88c0-4.28,3.1-7.17,7.59-7.17c4.49,0,7.59,2.89,7.59,7.17s-3.1,7.17-7.59,7.17
		C265.04,17.05,261.94,14.16,261.94,9.88z M263.12,26.03h12.73v52.62h-12.73V26.03z M290.68,64.85V7l12.73-5.12v63.61
		c0,3.1,1.39,4.17,2.67,4.17c0.64,0,1.07,0,1.93-0.21l1.5,9.3c-1.5,0.75-3.64,1.18-6.63,1.18
		C293.99,79.93,290.68,74.16,290.68,64.85z M319.15,9.88c0-4.28,3.1-7.17,7.59-7.17c4.49,0,7.59,2.89,7.59,7.17s-3.1,7.17-7.59,7.17
		C322.26,17.05,319.15,14.16,319.15,9.88z M320.33,26.03h12.73v52.62h-12.73V26.03z M347.89,26.03h11.66v7.06
		c4.71-4.49,10.05-8.34,17.22-8.34c11.34,0,16.26,7.7,16.26,20.96v32.94H380.4V47.31c0-8.56-2.46-11.66-8.02-11.66
		c-4.6,0-7.59,2.14-11.77,6.42v36.58h-12.73V26.03z M403.41,64.53c0-11.55,9.2-17.32,30.8-19.68c-0.21-5.35-2.35-9.84-9.41-9.84
		c-5.13,0-10.05,2.14-14.76,4.92l-4.49-8.34c5.78-3.64,13.26-6.84,21.6-6.84c13.05,0,19.68,8.13,19.68,22.78v31.12h-11.77v-5.78
		c-4.71,4.06-9.84,7.06-16.04,7.06C409.83,79.93,403.41,73.73,403.41,64.53z M434.21,64.53V53.41
		c-14.33,1.71-18.61,4.92-18.61,10.27c0,4.49,2.99,6.2,7.27,6.2S430.36,68.17,434.21,64.53z M461.59,60.79V36.08h-7.49V26.03h8.13
		V14.78l11.98-5.12v16.36h13.37v10.05h-13.37v24.71c0,6.1,2.46,9.09,7.38,9.09c1.82,0,3.64-0.32,5.45-1.07l2.25,8.88
		c-2.78,1.28-6.63,2.25-10.91,2.25C466.08,79.93,461.59,72.23,461.59,60.79z M493.36,52.45c0-17.54,11.98-27.7,25.13-27.7
		c13.05,0,25.03,10.16,25.03,27.7c0,17.43-11.98,27.49-25.03,27.49C505.33,79.93,493.36,69.88,493.36,52.45z M530.57,52.45
		c0-10.48-4.49-17.33-12.09-17.33c-7.59,0-12.08,6.84-12.08,17.33c0,10.37,4.49,17.22,12.08,17.22
		C526.08,69.67,530.57,62.82,530.57,52.45z M552.1,26.03h11.66v9.41c3.85-6.84,9.41-10.69,14.97-10.69c2.67,0,4.38,0.43,5.99,1.07
		l-2.57,10.8c-1.6-0.43-2.89-0.64-5.03-0.64c-4.17,0-9.2,2.78-12.3,10.8v31.87H552.1V26.03z"/>
	<linearGradient id="SVGID_1_" gradientUnits="userSpaceOnUse" x1="30.0457" y1="32.7023" x2="62.6694" y2="-0.5488">
		<stop  offset="0" style="stop-color:#2FC0D1"/>
		<stop  offset="1" style="stop-color:#A9D9BC"/>
	</linearGradient>
	<path class="st1" d="M53.59,57.06L5.23,8.7h96.71L53.59,57.06z M24.2,16.56l29.39,29.39l29.39-29.39H24.2z"/>
	<polygon class="st0" points="53.59,67.38 4.79,18.58 4.79,78.65 42.05,78.65 34.2,70.79 12.65,70.79 12.65,37.54 53.59,78.49 
		94.53,37.55 94.53,70.79 72.98,70.79 65.13,78.65 102.39,78.65 102.39,18.59 	"/>
</g>
</svg>
