<svg width="204" height="38" viewBox="0 0 204 38" fill="none" xmlns="http://www.w3.org/2000/svg">
<path d="M55.0534 12.4862C55.7099 13.2773 56.0381 14.2535 56.0381 15.415C56.0381 16.5764 55.7183 17.5526 55.0787 18.3437C54.4727 19.1012 53.6143 19.623 52.5033 19.9091C51.7627 20.0775 50.0829 20.1616 47.9957 20.1616H47.213V27.3847C47.213 27.5927 47.0444 27.7613 46.8364 27.7613H45.1911C44.9831 27.7613 44.8145 27.5927 44.8145 27.3847V11.0702C44.8145 10.8622 44.9831 10.6935 45.1911 10.6935H48.4502C50.3691 10.6935 51.9226 10.7777 52.5791 10.946C53.6058 11.1985 54.4306 11.7119 55.0534 12.4862ZM53.5551 15.415C53.5551 14.9605 53.4289 14.5313 53.1764 14.1273C52.9407 13.757 52.6125 13.4793 52.1917 13.2941C51.7541 13.1258 50.773 13.0416 49.7126 13.0416H47.213V17.8135L49.5864 17.864C50.125 17.8472 50.8199 17.822 51.207 17.7883C51.5942 17.7378 51.9056 17.662 52.1412 17.5611C52.5788 17.4096 52.9239 17.1318 53.1764 16.7279C53.4289 16.3576 53.5551 15.9199 53.5551 15.415Z" fill="#2C2C2C"/>
<path d="M71.7908 27.4627C71.8809 27.5872 71.7919 27.7613 71.6382 27.7613H69.1538C69.0554 27.7613 68.9631 27.7133 68.9068 27.6326L63.7045 20.1869H62.3619V27.3847C62.3619 27.5927 62.1933 27.7613 61.9853 27.7613H60.34C60.132 27.7613 59.9634 27.5927 59.9634 27.3847V11.0702C59.9634 10.8622 60.132 10.6935 60.34 10.6935H63.5991C64.0536 10.6935 65.0578 10.6767 65.3439 10.6935C65.6301 10.7104 65.8573 10.7356 66.0256 10.7693C66.2108 10.7861 66.7073 10.8955 66.7073 10.8955C67.7678 11.148 68.6178 11.6614 69.2574 12.4357C69.9307 13.2268 70.2673 14.2115 70.2673 15.3897C70.2673 16.3491 70.0401 17.1907 69.5856 17.9145C69.35 18.3017 69.0638 18.6383 68.7272 18.9245C68.4074 19.1938 68.0371 19.421 67.6163 19.6062C67.3301 19.7408 66.9066 19.947 66.9066 19.947L66.5319 20.1869L71.7908 27.4627ZM64.7858 17.864C65.1224 17.864 66.1237 17.8388 66.2583 17.7883C66.393 17.7378 66.5781 17.6536 66.8138 17.5358C67.0326 17.418 67.243 17.1823 67.243 17.1823C67.3272 17.0645 67.4366 16.913 67.5712 16.7279C67.8237 16.3239 67.95 15.8778 67.95 15.3897C67.95 14.9352 67.8237 14.5144 67.5712 14.1273C67.4366 13.9253 67.2935 13.757 67.142 13.6223C66.9905 13.4708 66.8475 13.353 66.7128 13.2689C66.4603 13.1174 65.8964 13.0416 65.4251 13.0416H62.3619V17.8388L64.7858 17.864Z" fill="#2C2C2C"/>
<path d="M90.2083 12.7386C91.942 14.4724 92.8089 16.5932 92.8089 19.1012C92.8089 21.6092 91.942 23.73 90.2083 25.4637C88.4746 27.1974 86.3622 28.0643 83.871 28.0643C81.3631 28.0643 79.2254 27.1974 77.458 25.4637C75.7243 23.73 74.8574 21.6344 74.8574 19.1769C74.8574 17.5442 75.253 16.0293 76.0441 14.6323C76.8352 13.2352 77.9209 12.1411 79.3011 11.35C80.6477 10.5589 82.1205 10.1633 83.7195 10.1633C86.2949 10.1633 88.4578 11.0218 90.2083 12.7386ZM90.3598 19.1012C90.3598 17.8724 90.0821 16.7615 89.5266 15.7684C88.9543 14.7922 88.1464 14.0011 87.1028 13.3951C86.0592 12.806 84.9567 12.5114 83.7953 12.5114C82.6675 12.5114 81.5903 12.806 80.5635 13.3951C79.5536 14.0011 78.7541 14.8006 78.1649 15.7937C77.5927 16.7868 77.3065 17.9145 77.3065 19.1769C77.3065 20.1195 77.4664 20.9696 77.7862 21.727C78.0892 22.4845 78.5605 23.183 79.2001 23.8226C79.8397 24.4622 80.5467 24.9335 81.321 25.2365C82.0616 25.5563 82.8864 25.7162 83.7953 25.7162C84.9735 25.7162 86.0845 25.4301 87.1281 24.8578C88.1548 24.2687 88.9459 23.4691 89.5014 22.4592C90.0737 21.4829 90.3598 20.3636 90.3598 19.1012Z" fill="#2C2C2C"/>
<path d="M113.431 10.6683C113.619 10.6683 113.778 10.806 113.804 10.9915L116.176 27.521C116.192 27.6345 116.104 27.7361 115.99 27.7361H114.096C113.946 27.7361 113.818 27.6251 113.798 27.476L112.344 16.9551L107.12 27.5263C107.057 27.6548 106.926 27.7361 106.783 27.7361H106.366C106.223 27.7361 106.093 27.6552 106.029 27.5272L100.73 16.8794L99.3005 27.475C99.2804 27.6245 99.1528 27.7361 99.0019 27.7361H97.1345C97.0199 27.7361 96.9318 27.6345 96.9481 27.521L99.32 10.9915C99.3466 10.806 99.5054 10.6683 99.6928 10.6683H99.9657C100.109 10.6683 100.24 10.7495 100.303 10.8778L106.587 23.5701L112.821 10.8789C112.884 10.75 113.016 10.6683 113.159 10.6683H113.431Z" fill="#2C2C2C"/>
<path d="M131.608 12.6902C131.608 12.8982 131.44 13.0669 131.232 13.0669H123.883V17.4096H131.156C131.364 17.4096 131.533 17.5782 131.533 17.7862V19.4062C131.533 19.6143 131.364 19.7829 131.156 19.7829H123.883V25.4385H131.156C131.364 25.4385 131.533 25.6071 131.533 25.8152V27.4099C131.533 27.6179 131.364 27.7866 131.156 27.7866H121.861C121.653 27.7866 121.484 27.6179 121.484 27.4099V11.0955C121.484 10.8874 121.653 10.7188 121.861 10.7188H131.232C131.44 10.7188 131.608 10.8874 131.608 11.0955V12.6902Z" fill="#2C2C2C"/>
<path d="M147.929 11.0702C147.929 10.8622 148.098 10.6935 148.306 10.6935H149.926C150.134 10.6935 150.302 10.8622 150.302 11.0702V27.3847C150.302 27.5927 150.134 27.7613 149.926 27.7613H149.564C149.456 27.7613 149.352 27.7143 149.281 27.6323L139.168 16.0462V27.3846C139.168 27.5927 138.999 27.7613 138.791 27.7613H137.095C136.887 27.7613 136.719 27.5927 136.719 27.3847V11.0702C136.719 10.8622 136.887 10.6935 137.095 10.6935H137.456C137.565 10.6935 137.669 10.7409 137.74 10.8233L147.929 22.5602V11.0702Z" fill="#2C2C2C"/>
<path d="M162.501 10.643C162.771 10.643 163.017 10.7994 163.131 11.0441L170.672 27.1746C170.788 27.4244 170.606 27.7108 170.33 27.7108H168.559C168.414 27.7108 168.282 27.6276 168.219 27.4968L165.746 22.333H159.207L156.759 27.4955C156.697 27.627 156.564 27.7108 156.419 27.7108H154.6C154.324 27.7108 154.142 27.4233 154.26 27.1734L161.872 11.0418C161.987 10.7984 162.232 10.643 162.501 10.643ZM164.686 20.0101L162.489 15.3645L160.293 20.0101H164.686Z" fill="#2C2C2C"/>
<path d="M187.861 14.3293C188.787 15.7768 189.25 17.4769 189.25 19.4294C189.25 21.1295 188.879 22.6275 188.139 23.9236C187.415 25.2197 186.447 26.1875 185.235 26.8271C184.057 27.4499 182.416 27.7613 180.312 27.7613H175.134C174.926 27.7613 174.757 27.5927 174.757 27.3847V11.0702C174.757 10.8622 174.926 10.6935 175.134 10.6935H178.519C180.977 10.6935 182.786 10.8955 183.948 11.2995C185.631 11.8886 186.935 12.8986 187.861 14.3293ZM177.08 25.4637H178.57C180.825 25.4637 182.357 25.3291 183.165 25.0598C184.343 24.6726 185.235 23.9993 185.841 23.0399C186.514 22.0636 186.851 20.8686 186.851 19.4547C186.851 17.9734 186.489 16.7026 185.765 15.6422C185.042 14.5986 184.049 13.8832 182.786 13.4961C181.793 13.1931 180.144 13.0416 177.838 13.0416H177.08V25.4637Z" fill="#2C2C2C"/>
<path d="M204 12.6902C204 12.8982 203.831 13.0669 203.623 13.0669H196.274V17.4096H203.547C203.755 17.4096 203.924 17.5782 203.924 17.7862V19.4062C203.924 19.6143 203.755 19.7829 203.547 19.7829H196.274V25.4385H203.547C203.755 25.4385 203.924 25.6071 203.924 25.8152V27.4099C203.924 27.6179 203.755 27.7866 203.547 27.7866H194.252C194.044 27.7866 193.875 27.6179 193.875 27.4099V11.0955C193.875 10.8874 194.044 10.7188 194.252 10.7188H203.623C203.831 10.7188 204 10.8874 204 11.0955V12.6902Z" fill="#2C2C2C"/>
<path fill-rule="evenodd" clip-rule="evenodd" d="M14.8105 0.0638428C18.7353 0.0638428 22.4995 1.63061 25.2748 4.41948C28.0501 7.20834 29.6092 10.9909 29.6092 14.9349C29.6092 16.8799 29.3736 18.5998 28.5986 20.2376C28.2256 20.9892 27.8007 21.7136 27.3271 22.4057C25.9972 24.4093 24.0441 26.8787 22.0366 29.3187L16.9894 23.3038C18.7738 22.8545 20.3783 21.8664 21.5868 20.4726C22.7952 19.0788 23.5495 17.3463 23.7479 15.5085C23.9464 13.6707 23.5796 11.8159 22.6968 10.1941C21.8141 8.57221 20.4578 7.26122 18.8109 6.43771C17.1639 5.6142 15.3053 5.31775 13.4855 5.5883C11.6657 5.85885 9.97217 6.68339 8.63303 7.95084C7.29391 9.2183 6.37354 10.8678 5.99595 12.677C5.61835 14.4862 5.80167 16.3683 6.5212 18.0696C7.32734 19.9774 9.22392 21.8676 10.5792 23.4819L18.7691 33.24C17.2114 35.0989 15.8269 36.7621 14.937 37.9361C9.81977 31.1659 0 22.7246 0 14.9427C0 10.9987 1.55915 7.21617 4.33446 4.4273C7.10977 1.63844 10.8739 0.0716713 14.7988 0.0716713L14.8105 0.0638428Z" fill="#2C2C2C"/>
<path fill-rule="evenodd" clip-rule="evenodd" d="M15.1569 10.3926C15.9738 10.3937 16.772 10.637 17.4507 11.0917C18.1293 11.5464 18.658 12.192 18.9698 12.9471C19.2816 13.7021 19.3625 14.5327 19.2025 15.3337C19.0424 16.1348 18.6484 16.8704 18.0704 17.4476C17.4924 18.0248 16.7562 18.4177 15.9549 18.5767C15.1536 18.7356 14.3232 18.6534 13.5686 18.3406C12.814 18.0277 12.1691 17.4981 11.7154 16.8188C11.2617 16.1395 11.0195 15.341 11.0195 14.5241C11.0195 13.9815 11.1264 13.4443 11.334 12.943C11.5417 12.4418 11.846 11.9863 12.2296 11.6027C12.6133 11.219 13.0687 10.9147 13.57 10.7071C14.0712 10.4994 14.6085 10.3926 15.1511 10.3926H15.1569Z" fill="#2C2C2C"/>
</svg>
